<svg width="48" height="63" viewBox="0 0 48 63" fill="none" xmlns="http://www.w3.org/2000/svg">
<path opacity="0.2" d="M27.2499 3.10938C22.3675 3.10938 17.6851 5.33175 14.2327 9.2876C10.7803 13.2434 8.84082 18.6087 8.84082 24.2031C8.84082 43.1875 27.2499 57.9532 27.2499 57.9532C27.2499 57.9532 45.659 43.1875 45.659 24.2031C45.659 18.6087 43.7195 13.2434 40.2671 9.2876C36.8147 5.33175 32.1323 3.10938 27.2499 3.10938ZM27.2499 32.6406C25.7935 32.6406 24.3698 32.1458 23.1589 31.2187C21.948 30.2915 21.0041 28.9738 20.4468 27.432C19.8895 25.8903 19.7436 24.1938 20.0278 22.5571C20.3119 20.9203 21.0132 19.4169 22.043 18.2369C23.0729 17.0569 24.3849 16.2533 25.8133 15.9278C27.2417 15.6022 28.7223 15.7693 30.0679 16.4079C31.4134 17.0465 32.5634 18.128 33.3725 19.5155C34.1817 20.9031 34.6135 22.5344 34.6135 24.2031C34.6135 26.4409 33.8377 28.587 32.4568 30.1694C31.0758 31.7517 29.2029 32.6406 27.2499 32.6406Z" fill="#F24E1E"/>
<path d="M27.25 13.6563C25.4295 13.6563 23.6499 14.2748 22.1362 15.4337C20.6225 16.5926 19.4428 18.2398 18.7461 20.167C18.0494 22.0942 17.8672 24.2148 18.2223 26.2607C18.5775 28.3066 19.4541 30.1859 20.7414 31.6609C22.0287 33.1359 23.6688 34.1404 25.4543 34.5474C27.2398 34.9543 29.0905 34.7455 30.7724 33.9472C32.4543 33.1489 33.8919 31.7971 34.9033 30.0627C35.9147 28.3282 36.4545 26.2891 36.4545 24.2031C36.4545 21.4059 35.4848 18.7233 33.7586 16.7454C32.0324 14.7674 29.6912 13.6563 27.25 13.6563ZM27.25 30.5313C26.1577 30.5313 25.0899 30.1601 24.1817 29.4648C23.2735 28.7694 22.5657 27.7811 22.1477 26.6248C21.7297 25.4685 21.6203 24.1961 21.8334 22.9686C22.0465 21.741 22.5725 20.6135 23.3448 19.7285C24.1172 18.8435 25.1013 18.2408 26.1726 17.9966C27.2439 17.7524 28.3543 17.8778 29.3635 18.3567C30.3726 18.8357 31.2351 19.6468 31.842 20.6874C32.4488 21.7281 32.7727 22.9516 32.7727 24.2031C32.7727 25.8815 32.1909 27.4911 31.1552 28.6778C30.1194 29.8646 28.7147 30.5313 27.25 30.5313ZM27.25 1C21.8812 1.00698 16.7341 3.45383 12.9378 7.80375C9.14152 12.1537 7.00609 18.0514 7 24.2031C7 32.4824 10.3389 41.2575 16.6648 49.5816C19.5072 53.343 22.7063 56.7301 26.203 59.6802C26.5125 59.9287 26.8813 60.0619 27.2592 60.0619C27.6371 60.0619 28.0059 59.9287 28.3154 59.6802C31.8057 56.7289 34.9986 53.3418 37.8352 49.5816C44.1518 41.2575 47.5 32.4824 47.5 24.2031C47.4939 18.0514 45.3585 12.1537 41.5622 7.80375C37.7659 3.45383 32.6188 1.00698 27.25 1ZM27.25 55.3164C23.4462 51.8887 10.6818 39.2984 10.6818 24.2031C10.6818 19.1682 12.4274 14.3394 15.5345 10.7792C18.6417 7.21889 22.8558 5.21875 27.25 5.21875C31.6442 5.21875 35.8583 7.21889 38.9655 10.7792C42.0726 14.3394 43.8182 19.1682 43.8182 24.2031C43.8182 39.2931 31.0538 51.8887 27.25 55.3164Z" fill="#F24E1E"/>
</svg>
